<svg width="807" height="754" viewBox="0 0 807 754" fill="none" xmlns="http://www.w3.org/2000/svg">
<path d="M73.0977 2.69999C163.137 4.49999 311.867 18.9 381.301 84.1C387.844 90.2 394.777 96.7 394.68 106.6V716.1C392.434 739.2 373.391 714.2 365.187 708.2C291.359 653.7 196.535 643.4 107.668 639.1C60.9883 636.9 10.5 650.2 0.636719 585.9V52.5C3.17578 27.7 26.5156 5.80008 50.1484 2.80008C56.5938 2.00008 66.2617 2.70008 73.0977 2.80008V2.69999ZM495.656 728.4V183.1C491.164 151.8 449.66 151.8 445.07 183.1V731.6C446.34 742.2 454.543 748 462.453 753.3H478.176C487.453 747.5 495.461 740.6 495.559 728.4H495.656ZM662.551 10.4001C655.812 23.6001 654.445 51 649.172 66.7C643.898 82.5 630.91 95.5 615.578 101.1C600.344 106.6 573.488 107.9 560.598 114.8C548 121.6 548 141.2 560.598 147.9C573.488 154.8 600.344 156.1 615.578 161.6C630.91 167.2 643.898 180.2 649.172 196C654.445 211.6 655.812 239.1 662.551 252.3C669.191 265.2 688.332 265.2 694.875 252.3C701.613 239.1 702.98 211.7 708.254 196C713.527 180.4 726.613 167 741.848 161.6C757.082 156.2 783.937 154.8 796.828 147.9C809.426 141.1 809.426 121.5 796.828 114.8C783.937 107.9 757.18 106.5 741.848 101.1C726.613 95.7 713.527 82.3 708.254 66.7C703.176 51.7 701.223 21.6 694.484 9.69999C690.48 2.69999 682.57 -0.199989 674.953 1.10001C670.168 1.90001 664.699 6.10004 662.453 10.5L662.551 10.4001ZM547.609 240.8V634.5C551.906 665.7 593.898 665.8 598.098 634.5V242.5C596.242 226.1 581.887 216.2 566.164 219.6C558.156 221.3 548.391 232.3 547.609 241V240.8ZM650.051 331.1V545.7C656.594 575.8 696.047 574.7 700.539 544.1V331.2C697.414 315.6 684.035 306.6 668.605 309.8C660.598 311.5 650.832 322.5 650.051 331.2V331.1Z" fill="url(#paint0_linear_58_198)"/>
<defs>
<linearGradient id="paint0_linear_58_198" x1="0.636719" y1="377" x2="806.301" y2="377" gradientUnits="userSpaceOnUse">
<stop stop-color="#D88DFD"/>
<stop offset="0.2" stop-color="#DD95EC"/>
<stop offset="0.6" stop-color="#ECAAC1"/>
<stop offset="0.9" stop-color="#F9BC9D"/>
</linearGradient>
</defs>
</svg>
